<svg width="208" height="48" viewBox="0 0 208 48" fill="none" xmlns="http://www.w3.org/2000/svg">
<path fill-rule="evenodd" clip-rule="evenodd" d="M156.214 4.86498C153.631 4.95862 151.319 5.44409 149.277 6.32142C146.991 7.30356 145.071 8.69642 143.518 10.5C141.964 12.3036 140.786 14.4375 139.982 16.9018C139.179 19.3661 138.777 22.0803 138.777 25.0446C138.777 29.0625 139.402 32.5803 140.652 35.5982C141.902 38.5982 143.821 40.9375 146.411 42.6161C149.018 44.2768 152.339 45.1071 156.375 45.1071C158.464 45.1071 160.348 44.9464 162.027 44.625C163.705 44.3214 165.411 43.8125 167.143 43.0982V36.1339C165.268 36.7946 163.527 37.3036 161.92 37.6607C160.33 38.0178 158.741 38.1964 157.152 38.1964C154.866 38.1964 153 37.6875 151.554 36.6696C150.107 35.6339 149.036 34.1428 148.339 32.1964C147.661 30.2321 147.321 27.8661 147.321 25.0982C147.321 23.0446 147.536 21.1964 147.964 19.5536C148.393 17.9107 149.018 16.5089 149.839 15.3482C150.679 14.1875 151.705 13.3036 152.92 12.6964C153.904 12.1972 155.002 11.8973 156.214 11.7969V4.86498ZM66.8839 14.625V44.5714H58.7143V14.625H66.8839ZM62.8125 2.89285C64.0268 2.89285 65.0714 3.17856 65.9464 3.74999C66.8214 4.30356 67.2589 5.3482 67.2589 6.88392C67.2589 8.40177 66.8214 9.45534 65.9464 10.0446C65.0714 10.6161 64.0268 10.9018 62.8125 10.9018C61.5804 10.9018 60.5268 10.6161 59.6518 10.0446C58.7946 9.45534 58.3661 8.40177 58.3661 6.88392C58.3661 5.3482 58.7946 4.30356 59.6518 3.74999C60.5268 3.17856 61.5804 2.89285 62.8125 2.89285ZM23.5714 8.67856C21.25 6.49999 17.5625 5.4107 12.5089 5.4107H0V44.5714H8.30357V30.6428H11.8661C14.7232 30.6428 17.125 30.2946 19.0714 29.5982C21.0179 28.8839 22.5714 27.9196 23.7321 26.7053C24.9107 25.4911 25.7589 24.1071 26.2768 22.5536C26.7946 20.9821 27.0536 19.3393 27.0536 17.625C27.0536 13.8214 25.8929 10.8393 23.5714 8.67856ZM8.30357 12.2143H12.0804C14.3304 12.2143 15.9911 12.6875 17.0625 13.6339C18.1339 14.5625 18.6696 15.9911 18.6696 17.9196C18.6696 19.2946 18.3571 20.4196 17.7321 21.2946C17.1071 22.1696 16.2232 22.8125 15.0804 23.2232C13.9375 23.6339 12.5893 23.8393 11.0357 23.8393H8.30357V12.2143ZM51.9375 14.1428C51.4018 14.0893 50.9286 14.0625 50.5179 14.0625C49.1964 14.0625 47.9643 14.3214 46.8214 14.8393C45.6964 15.3393 44.6875 16.0178 43.7946 16.875C42.9196 17.7143 42.1875 18.6428 41.5982 19.6607H41.1964L39.9911 14.625H33.8036V44.5714H41.9732V29.3303C41.9732 27.9196 42.1964 26.7321 42.6429 25.7678C43.1071 24.7857 43.7321 24 44.5179 23.4107C45.3036 22.8036 46.1875 22.3661 47.1696 22.0982C48.1696 21.8303 49.1964 21.6964 50.25 21.6964C50.6071 21.6964 51.0268 21.7232 51.5089 21.7768C52.0089 21.8125 52.3929 21.875 52.6607 21.9643L53.2768 14.3036C52.9375 14.2321 52.4911 14.1786 51.9375 14.1428ZM71.1964 14.625L82.6071 44.5714H90.9911L102.402 14.625H93.8571L88.0982 31.6875C87.7589 32.6875 87.4821 33.7232 87.2679 34.7946C87.0714 35.8661 86.9464 36.875 86.8929 37.8214H86.6786C86.6071 36.9464 86.4732 35.9553 86.2768 34.8482C86.0982 33.7411 85.8482 32.6875 85.5268 31.6875L79.7411 14.625H71.1964ZM118.982 14.0089C123 14.0089 126.08 14.8839 128.223 16.6339C130.366 18.3839 131.438 21.0446 131.438 24.6161V44.5714H125.732L124.152 40.5H123.938C123.08 41.5714 122.205 42.4464 121.312 43.125C120.42 43.8036 119.393 44.3036 118.232 44.625C117.071 44.9464 115.661 45.1071 114 45.1071C112.232 45.1071 110.643 44.7678 109.232 44.0893C107.839 43.4107 106.741 42.375 105.938 40.9821C105.134 39.5714 104.732 37.7857 104.732 35.625C104.732 32.4464 105.848 30.1071 108.08 28.6071C110.312 27.0893 113.661 26.25 118.125 26.0893L123.321 25.9286V24.6161C123.321 23.0446 122.911 21.8928 122.089 21.1607C121.268 20.4286 120.125 20.0625 118.661 20.0625C117.214 20.0625 115.795 20.2678 114.402 20.6786C113.009 21.0893 111.616 21.6071 110.223 22.2321L107.518 16.7143C109.107 15.875 110.884 15.2143 112.848 14.7321C114.83 14.25 116.875 14.0089 118.982 14.0089ZM123.321 30.6964L120.161 30.8036C117.518 30.875 115.679 31.3482 114.643 32.2232C113.625 33.0982 113.116 34.25 113.116 35.6786C113.116 36.9286 113.482 37.8214 114.214 38.3571C114.946 38.875 115.902 39.1339 117.08 39.1339C118.83 39.1339 120.304 38.6161 121.5 37.5803C122.714 36.5446 123.321 35.0714 123.321 33.1607V30.6964Z" fill="black"/>
<rect x="159.643" width="48" height="48" rx="8" fill="#6A002C"/>
<path fill-rule="evenodd" clip-rule="evenodd" d="M179.099 19.2725C176.488 19.2725 174.372 21.3888 174.372 23.9994C174.372 26.61 176.488 28.7263 179.099 28.7263C181.709 28.7263 183.826 26.61 183.826 23.9994C183.826 21.3888 181.709 19.2725 179.099 19.2725ZM171.536 23.9994C171.536 19.8225 174.922 16.4364 179.099 16.4364C182.791 16.4364 185.865 19.0822 186.529 22.5813H195.643V25.4174H192.807V30.1444H189.971L189.971 25.4174H186.529C185.865 28.9166 182.791 31.5624 179.099 31.5624C174.922 31.5624 171.536 28.1764 171.536 23.9994Z" fill="white"/>
</svg>
