<svg width="87" height="20" viewBox="0 0 87 20" fill="none" xmlns="http://www.w3.org/2000/svg">
<path fill-rule="evenodd" clip-rule="evenodd" d="M65.0893 2.02708C64.0129 2.06609 63.0494 2.26837 62.1987 2.63392C61.2463 3.04315 60.4464 3.62351 59.7991 4.375C59.1518 5.12648 58.6607 6.01562 58.3259 7.04241C57.9911 8.06919 57.8237 9.20014 57.8237 10.4353C57.8237 12.1094 58.0841 13.5751 58.6049 14.8326C59.1257 16.0826 59.9256 17.0573 61.0045 17.7567C62.0908 18.4487 63.4747 18.7946 65.1562 18.7946C66.0268 18.7946 66.8118 18.7277 67.5112 18.5937C68.2106 18.4673 68.9211 18.2552 69.6429 17.9576V15.0558C68.8616 15.3311 68.1362 15.5431 67.4665 15.692C66.8043 15.8408 66.1421 15.9152 65.4799 15.9152C64.5275 15.9152 63.75 15.7031 63.1473 15.279C62.5446 14.8475 62.0982 14.2262 61.808 13.4152C61.5253 12.5967 61.3839 11.6109 61.3839 10.4576C61.3839 9.60193 61.4732 8.83184 61.6518 8.14732C61.8304 7.46279 62.0908 6.87872 62.433 6.39508C62.7827 5.91145 63.2106 5.54315 63.7165 5.29017C64.1266 5.08215 64.5842 4.95721 65.0893 4.91536V2.02708ZM27.8683 18.5714H24.4643V6.09375H27.8683V18.5714ZM26.1719 1.20535C26.6778 1.20535 27.1131 1.3244 27.4777 1.5625C27.8423 1.79315 28.0246 2.22842 28.0246 2.8683C28.0246 3.50074 27.8423 3.93973 27.4777 4.18526C27.1131 4.42336 26.6778 4.54241 26.1719 4.54241C25.6585 4.54241 25.2195 4.42336 24.8549 4.18526C24.4978 3.93973 24.3192 3.50074 24.3192 2.8683C24.3192 2.22842 24.4978 1.79315 24.8549 1.5625C25.2195 1.3244 25.6585 1.20535 26.1719 1.20535ZM9.82143 3.61607C8.85417 2.70833 7.31771 2.25446 5.21205 2.25446H0V18.5714H3.45982V12.7679H4.9442C6.13467 12.7679 7.13542 12.6228 7.94643 12.3326C8.75744 12.035 9.40476 11.6332 9.88839 11.1272C10.3795 10.6213 10.7329 10.0446 10.9487 9.39732C11.1644 8.74255 11.2723 8.05803 11.2723 7.34375C11.2723 5.75892 10.7887 4.51636 9.82143 3.61607ZM3.45982 5.08928H5.03348C5.97098 5.08928 6.66295 5.28645 7.10938 5.6808C7.5558 6.0677 7.77902 6.66294 7.77902 7.46651C7.77902 8.03943 7.64881 8.50818 7.38839 8.87276C7.12798 9.23735 6.75967 9.5052 6.28348 9.67633C5.80729 9.84747 5.24554 9.93303 4.59821 9.93303H3.45982V5.08928ZM21.6406 5.89285C21.4174 5.87053 21.2202 5.85937 21.0491 5.85937C20.4985 5.85937 19.9851 5.96726 19.5089 6.18303C19.0402 6.39136 18.6198 6.6741 18.2478 7.03125C17.8832 7.38095 17.5781 7.76785 17.3326 8.19196H17.1652L16.6629 6.09375H14.0848V18.5714H17.4888V12.221C17.4888 11.6332 17.5818 11.1384 17.7679 10.7366C17.9613 10.3274 18.2217 10 18.5491 9.75446C18.8765 9.50148 19.2448 9.31919 19.654 9.20758C20.0707 9.09598 20.4985 9.04017 20.9375 9.04017C21.0863 9.04017 21.2612 9.05133 21.4621 9.07366C21.6704 9.08854 21.8304 9.11458 21.942 9.15178L22.1987 5.95982C22.0573 5.93005 21.8713 5.90773 21.6406 5.89285ZM33.2254 6.09375H29.6652L34.4196 18.5714H37.9129L42.6674 6.09375H39.1071L36.7076 13.2031C36.5662 13.6198 36.4509 14.0513 36.3616 14.4978C36.2798 14.9442 36.2277 15.3646 36.2054 15.7589H36.1161C36.0863 15.3943 36.0305 14.9814 35.9487 14.5201C35.8743 14.0588 35.7701 13.6198 35.6362 13.2031L33.2254 6.09375ZM49.5759 5.83705C51.25 5.83705 52.5335 6.20163 53.4263 6.9308C54.3192 7.65997 54.7656 8.7686 54.7656 10.2567V18.5714H52.3884L51.7299 16.875H51.6406C51.2835 17.3214 50.9189 17.686 50.5469 17.9687C50.1749 18.2515 49.747 18.4598 49.2634 18.5937C48.7798 18.7277 48.192 18.7946 47.5 18.7946C46.7634 18.7946 46.1012 18.6533 45.5134 18.3705C44.933 18.0878 44.4754 17.6562 44.1406 17.0759C43.8058 16.4881 43.6384 15.744 43.6384 14.8437C43.6384 13.5193 44.1034 12.5446 45.0335 11.9196C45.9635 11.2872 47.3586 10.9375 49.2188 10.8705L51.3839 10.8036V10.2567C51.3839 9.60193 51.2128 9.12202 50.8705 8.81696C50.5283 8.5119 50.0521 8.35937 49.442 8.35937C48.8393 8.35937 48.2478 8.44494 47.6674 8.61607C47.0871 8.7872 46.5067 9.00297 45.9263 9.26339L44.7991 6.96428C45.4613 6.61458 46.2016 6.33928 47.0201 6.13839C47.846 5.9375 48.6979 5.83705 49.5759 5.83705ZM51.3839 12.7902L50.067 12.8348C48.9658 12.8646 48.1994 13.0618 47.7679 13.4263C47.3438 13.7909 47.1317 14.2708 47.1317 14.8661C47.1317 15.3869 47.2842 15.7589 47.5893 15.9821C47.8943 16.1979 48.2924 16.3058 48.7835 16.3058C49.5126 16.3058 50.1265 16.09 50.625 15.6585C51.131 15.2269 51.3839 14.6131 51.3839 13.817V12.7902Z" fill="white"/>
<rect x="66.5179" width="20" height="20" rx="2" fill="#6A002C"/>
<path fill-rule="evenodd" clip-rule="evenodd" d="M74.6245 8.0302C73.5367 8.0302 72.6549 8.91199 72.6549 9.99974C72.6549 11.0875 73.5367 11.9693 74.6245 11.9693C75.7122 11.9693 76.594 11.0875 76.594 9.99974C76.594 8.91199 75.7122 8.0302 74.6245 8.0302ZM71.4732 9.99974C71.4732 8.25935 72.8841 6.84848 74.6245 6.84848C76.1629 6.84848 77.4439 7.95091 77.7204 9.40887H81.5179V10.5906H80.3361V12.5602H79.1544V10.5906H77.7204C77.4439 12.0486 76.1629 13.151 74.6245 13.151C72.8841 13.151 71.4732 11.7401 71.4732 9.99974Z" fill="white"/>
</svg>
