<svg width="500" height="392" viewBox="0 0 500 392" fill="none" xmlns="http://www.w3.org/2000/svg">
<g clip-path="url(#clip0_305_1837)">
<path d="M16 16C18.9466 16 21.3333 13.6134 21.3333 10.6667C21.3333 7.72004 18.9466 5.33337 16 5.33337C13.0533 5.33337 10.6666 7.72004 10.6666 10.6667C10.6666 13.6134 13.0533 16 16 16ZM16 18.6667C12.44 18.6667 5.33331 20.4534 5.33331 24V26.6667H26.6666V24C26.6666 20.4534 19.56 18.6667 16 18.6667Z" fill="#6A002C"/>
</g>
<g clip-path="url(#clip1_305_1837)">
<path d="M16 88C18.9466 88 21.3333 85.6134 21.3333 82.6667C21.3333 79.72 18.9466 77.3334 16 77.3334C13.0533 77.3334 10.6666 79.72 10.6666 82.6667C10.6666 85.6134 13.0533 88 16 88ZM16 90.6667C12.44 90.6667 5.33331 92.4534 5.33331 96V98.6667H26.6666V96C26.6666 92.4534 19.56 90.6667 16 90.6667Z" fill="#6A002C"/>
</g>
<g clip-path="url(#clip2_305_1837)">
<path d="M16 160C18.9466 160 21.3333 157.613 21.3333 154.667C21.3333 151.72 18.9466 149.333 16 149.333C13.0533 149.333 10.6666 151.72 10.6666 154.667C10.6666 157.613 13.0533 160 16 160ZM16 162.667C12.44 162.667 5.33331 164.453 5.33331 168V170.667H26.6666V168C26.6666 164.453 19.56 162.667 16 162.667Z" fill="#DDDDDD"/>
</g>
<g clip-path="url(#clip3_305_1837)">
<path d="M16 232C18.9466 232 21.3333 229.613 21.3333 226.667C21.3333 223.72 18.9466 221.333 16 221.333C13.0533 221.333 10.6666 223.72 10.6666 226.667C10.6666 229.613 13.0533 232 16 232ZM16 234.667C12.44 234.667 5.33331 236.453 5.33331 240V242.667H26.6666V240C26.6666 236.453 19.56 234.667 16 234.667Z" fill="#6A002C"/>
</g>
<g clip-path="url(#clip4_305_1837)">
<path d="M16 304C18.9466 304 21.3333 301.613 21.3333 298.667C21.3333 295.72 18.9466 293.333 16 293.333C13.0533 293.333 10.6666 295.72 10.6666 298.667C10.6666 301.613 13.0533 304 16 304ZM16 306.667C12.44 306.667 5.33331 308.453 5.33331 312V314.667H26.6666V312C26.6666 308.453 19.56 306.667 16 306.667Z" fill="#6A002C"/>
</g>
<g clip-path="url(#clip5_305_1837)">
<path d="M16 376C18.9466 376 21.3333 373.613 21.3333 370.667C21.3333 367.72 18.9466 365.333 16 365.333C13.0533 365.333 10.6666 367.72 10.6666 370.667C10.6666 373.613 13.0533 376 16 376ZM16 378.667C12.44 378.667 5.33331 380.453 5.33331 384V386.667H26.6666V384C26.6666 380.453 19.56 378.667 16 378.667Z" fill="#6A002C"/>
</g>
<g clip-path="url(#clip6_305_1837)">
<path d="M328 16C330.947 16 333.333 13.6134 333.333 10.6667C333.333 7.72004 330.947 5.33337 328 5.33337C325.053 5.33337 322.667 7.72004 322.667 10.6667C322.667 13.6134 325.053 16 328 16ZM328 18.6667C324.44 18.6667 317.333 20.4534 317.333 24V26.6667H338.667V24C338.667 20.4534 331.56 18.6667 328 18.6667Z" fill="#6A002C"/>
</g>
<g clip-path="url(#clip7_305_1837)">
<path d="M328 88C330.947 88 333.333 85.6134 333.333 82.6667C333.333 79.72 330.947 77.3334 328 77.3334C325.053 77.3334 322.667 79.72 322.667 82.6667C322.667 85.6134 325.053 88 328 88ZM328 90.6667C324.44 90.6667 317.333 92.4534 317.333 96V98.6667H338.667V96C338.667 92.4534 331.56 90.6667 328 90.6667Z" fill="#DDDDDD"/>
</g>
<g clip-path="url(#clip8_305_1837)">
<path d="M328 160C330.947 160 333.333 157.613 333.333 154.667C333.333 151.72 330.947 149.333 328 149.333C325.053 149.333 322.667 151.72 322.667 154.667C322.667 157.613 325.053 160 328 160ZM328 162.667C324.44 162.667 317.333 164.453 317.333 168V170.667H338.667V168C338.667 164.453 331.56 162.667 328 162.667Z" fill="#6A002C"/>
</g>
<g clip-path="url(#clip9_305_1837)">
<path d="M328 232C330.947 232 333.333 229.613 333.333 226.667C333.333 223.72 330.947 221.333 328 221.333C325.053 221.333 322.667 223.72 322.667 226.667C322.667 229.613 325.053 232 328 232ZM328 234.667C324.44 234.667 317.333 236.453 317.333 240V242.667H338.667V240C338.667 236.453 331.56 234.667 328 234.667Z" fill="#6A002C"/>
</g>
<g clip-path="url(#clip10_305_1837)">
<path d="M328 304C330.947 304 333.333 301.613 333.333 298.667C333.333 295.72 330.947 293.333 328 293.333C325.053 293.333 322.667 295.72 322.667 298.667C322.667 301.613 325.053 304 328 304ZM328 306.667C324.44 306.667 317.333 308.453 317.333 312V314.667H338.667V312C338.667 308.453 331.56 306.667 328 306.667Z" fill="#6A002C"/>
</g>
<g clip-path="url(#clip11_305_1837)">
<path d="M328 376C330.947 376 333.333 373.613 333.333 370.667C333.333 367.72 330.947 365.333 328 365.333C325.053 365.333 322.667 367.72 322.667 370.667C322.667 373.613 325.053 376 328 376ZM328 378.667C324.44 378.667 317.333 380.453 317.333 384V386.667H338.667V384C338.667 380.453 331.56 378.667 328 378.667Z" fill="#6A002C"/>
</g>
<g clip-path="url(#clip12_305_1837)">
<path d="M172 16C174.947 16 177.333 13.6134 177.333 10.6667C177.333 7.72004 174.947 5.33337 172 5.33337C169.053 5.33337 166.667 7.72004 166.667 10.6667C166.667 13.6134 169.053 16 172 16ZM172 18.6667C168.44 18.6667 161.333 20.4534 161.333 24V26.6667H182.667V24C182.667 20.4534 175.56 18.6667 172 18.6667Z" fill="#DDDDDD"/>
</g>
<g clip-path="url(#clip13_305_1837)">
<path d="M172 88C174.947 88 177.333 85.6134 177.333 82.6667C177.333 79.72 174.947 77.3334 172 77.3334C169.053 77.3334 166.667 79.72 166.667 82.6667C166.667 85.6134 169.053 88 172 88ZM172 90.6667C168.44 90.6667 161.333 92.4534 161.333 96V98.6667H182.667V96C182.667 92.4534 175.56 90.6667 172 90.6667Z" fill="#6A002C"/>
</g>
<g clip-path="url(#clip14_305_1837)">
<path d="M172 160C174.947 160 177.333 157.613 177.333 154.667C177.333 151.72 174.947 149.333 172 149.333C169.053 149.333 166.667 151.72 166.667 154.667C166.667 157.613 169.053 160 172 160ZM172 162.667C168.44 162.667 161.333 164.453 161.333 168V170.667H182.667V168C182.667 164.453 175.56 162.667 172 162.667Z" fill="#6A002C"/>
</g>
<g clip-path="url(#clip15_305_1837)">
<path d="M172 232C174.947 232 177.333 229.613 177.333 226.667C177.333 223.72 174.947 221.333 172 221.333C169.053 221.333 166.667 223.72 166.667 226.667C166.667 229.613 169.053 232 172 232ZM172 234.667C168.44 234.667 161.333 236.453 161.333 240V242.667H182.667V240C182.667 236.453 175.56 234.667 172 234.667Z" fill="#6A002C"/>
</g>
<g clip-path="url(#clip16_305_1837)">
<path d="M172 304C174.947 304 177.333 301.613 177.333 298.667C177.333 295.72 174.947 293.333 172 293.333C169.053 293.333 166.667 295.72 166.667 298.667C166.667 301.613 169.053 304 172 304ZM172 306.667C168.44 306.667 161.333 308.453 161.333 312V314.667H182.667V312C182.667 308.453 175.56 306.667 172 306.667Z" fill="#6A002C"/>
</g>
<g clip-path="url(#clip17_305_1837)">
<path d="M172 376C174.947 376 177.333 373.613 177.333 370.667C177.333 367.72 174.947 365.333 172 365.333C169.053 365.333 166.667 367.72 166.667 370.667C166.667 373.613 169.053 376 172 376ZM172 378.667C168.44 378.667 161.333 380.453 161.333 384V386.667H182.667V384C182.667 380.453 175.56 378.667 172 378.667Z" fill="#DDDDDD"/>
</g>
<g clip-path="url(#clip18_305_1837)">
<path d="M484 16C486.947 16 489.333 13.6134 489.333 10.6667C489.333 7.72004 486.947 5.33337 484 5.33337C481.053 5.33337 478.667 7.72004 478.667 10.6667C478.667 13.6134 481.053 16 484 16ZM484 18.6667C480.44 18.6667 473.333 20.4534 473.333 24V26.6667H494.667V24C494.667 20.4534 487.56 18.6667 484 18.6667Z" fill="#6A002C"/>
</g>
<g clip-path="url(#clip19_305_1837)">
<path d="M484 88C486.947 88 489.333 85.6134 489.333 82.6667C489.333 79.72 486.947 77.3334 484 77.3334C481.053 77.3334 478.667 79.72 478.667 82.6667C478.667 85.6134 481.053 88 484 88ZM484 90.6667C480.44 90.6667 473.333 92.4534 473.333 96V98.6667H494.667V96C494.667 92.4534 487.56 90.6667 484 90.6667Z" fill="#DDDDDD"/>
</g>
<g clip-path="url(#clip20_305_1837)">
<path d="M484 160C486.947 160 489.333 157.613 489.333 154.667C489.333 151.72 486.947 149.333 484 149.333C481.053 149.333 478.667 151.72 478.667 154.667C478.667 157.613 481.053 160 484 160ZM484 162.667C480.44 162.667 473.333 164.453 473.333 168V170.667H494.667V168C494.667 164.453 487.56 162.667 484 162.667Z" fill="#6A002C"/>
</g>
<g clip-path="url(#clip21_305_1837)">
<path d="M484 232C486.947 232 489.333 229.613 489.333 226.667C489.333 223.72 486.947 221.333 484 221.333C481.053 221.333 478.667 223.72 478.667 226.667C478.667 229.613 481.053 232 484 232ZM484 234.667C480.44 234.667 473.333 236.453 473.333 240V242.667H494.667V240C494.667 236.453 487.56 234.667 484 234.667Z" fill="#6A002C"/>
</g>
<g clip-path="url(#clip22_305_1837)">
<path d="M484 304C486.947 304 489.333 301.613 489.333 298.667C489.333 295.72 486.947 293.333 484 293.333C481.053 293.333 478.667 295.72 478.667 298.667C478.667 301.613 481.053 304 484 304ZM484 306.667C480.44 306.667 473.333 308.453 473.333 312V314.667H494.667V312C494.667 308.453 487.56 306.667 484 306.667Z" fill="#6A002C"/>
</g>
<g clip-path="url(#clip23_305_1837)">
<path d="M484 376C486.947 376 489.333 373.613 489.333 370.667C489.333 367.72 486.947 365.333 484 365.333C481.053 365.333 478.667 367.72 478.667 370.667C478.667 373.613 481.053 376 484 376ZM484 378.667C480.44 378.667 473.333 380.453 473.333 384V386.667H494.667V384C494.667 380.453 487.56 378.667 484 378.667Z" fill="#6A002C"/>
</g>
<g clip-path="url(#clip24_305_1837)">
<path d="M68 16C70.9466 16 73.3333 13.6134 73.3333 10.6667C73.3333 7.72004 70.9466 5.33337 68 5.33337C65.0533 5.33337 62.6666 7.72004 62.6666 10.6667C62.6666 13.6134 65.0533 16 68 16ZM68 18.6667C64.44 18.6667 57.3333 20.4534 57.3333 24V26.6667H78.6666V24C78.6666 20.4534 71.56 18.6667 68 18.6667Z" fill="#6A002C"/>
</g>
<g clip-path="url(#clip25_305_1837)">
<path d="M68 88C70.9466 88 73.3333 85.6134 73.3333 82.6667C73.3333 79.72 70.9466 77.3334 68 77.3334C65.0533 77.3334 62.6666 79.72 62.6666 82.6667C62.6666 85.6134 65.0533 88 68 88ZM68 90.6667C64.44 90.6667 57.3333 92.4534 57.3333 96V98.6667H78.6666V96C78.6666 92.4534 71.56 90.6667 68 90.6667Z" fill="#6A002C"/>
</g>
<g clip-path="url(#clip26_305_1837)">
<path d="M68 160C70.9466 160 73.3333 157.613 73.3333 154.667C73.3333 151.72 70.9466 149.333 68 149.333C65.0533 149.333 62.6666 151.72 62.6666 154.667C62.6666 157.613 65.0533 160 68 160ZM68 162.667C64.44 162.667 57.3333 164.453 57.3333 168V170.667H78.6666V168C78.6666 164.453 71.56 162.667 68 162.667Z" fill="#6A002C"/>
</g>
<g clip-path="url(#clip27_305_1837)">
<path d="M68 232C70.9466 232 73.3333 229.613 73.3333 226.667C73.3333 223.72 70.9466 221.333 68 221.333C65.0533 221.333 62.6666 223.72 62.6666 226.667C62.6666 229.613 65.0533 232 68 232ZM68 234.667C64.44 234.667 57.3333 236.453 57.3333 240V242.667H78.6666V240C78.6666 236.453 71.56 234.667 68 234.667Z" fill="#6A002C"/>
</g>
<g clip-path="url(#clip28_305_1837)">
<path d="M68 304C70.9466 304 73.3333 301.613 73.3333 298.667C73.3333 295.72 70.9466 293.333 68 293.333C65.0533 293.333 62.6666 295.72 62.6666 298.667C62.6666 301.613 65.0533 304 68 304ZM68 306.667C64.44 306.667 57.3333 308.453 57.3333 312V314.667H78.6666V312C78.6666 308.453 71.56 306.667 68 306.667Z" fill="#DDDDDD"/>
</g>
<g clip-path="url(#clip29_305_1837)">
<path d="M68 376C70.9466 376 73.3333 373.613 73.3333 370.667C73.3333 367.72 70.9466 365.333 68 365.333C65.0533 365.333 62.6666 367.72 62.6666 370.667C62.6666 373.613 65.0533 376 68 376ZM68 378.667C64.44 378.667 57.3333 380.453 57.3333 384V386.667H78.6666V384C78.6666 380.453 71.56 378.667 68 378.667Z" fill="#6A002C"/>
</g>
<g clip-path="url(#clip30_305_1837)">
<path d="M380 16C382.947 16 385.333 13.6134 385.333 10.6667C385.333 7.72004 382.947 5.33337 380 5.33337C377.053 5.33337 374.667 7.72004 374.667 10.6667C374.667 13.6134 377.053 16 380 16ZM380 18.6667C376.44 18.6667 369.333 20.4534 369.333 24V26.6667H390.667V24C390.667 20.4534 383.56 18.6667 380 18.6667Z" fill="#6A002C"/>
</g>
<g clip-path="url(#clip31_305_1837)">
<path d="M380 88C382.947 88 385.333 85.6134 385.333 82.6667C385.333 79.72 382.947 77.3334 380 77.3334C377.053 77.3334 374.667 79.72 374.667 82.6667C374.667 85.6134 377.053 88 380 88ZM380 90.6667C376.44 90.6667 369.333 92.4534 369.333 96V98.6667H390.667V96C390.667 92.4534 383.56 90.6667 380 90.6667Z" fill="#6A002C"/>
</g>
<g clip-path="url(#clip32_305_1837)">
<path d="M380 160C382.947 160 385.333 157.613 385.333 154.667C385.333 151.72 382.947 149.333 380 149.333C377.053 149.333 374.667 151.72 374.667 154.667C374.667 157.613 377.053 160 380 160ZM380 162.667C376.44 162.667 369.333 164.453 369.333 168V170.667H390.667V168C390.667 164.453 383.56 162.667 380 162.667Z" fill="#DDDDDD"/>
</g>
<g clip-path="url(#clip33_305_1837)">
<path d="M380 232C382.947 232 385.333 229.613 385.333 226.667C385.333 223.72 382.947 221.333 380 221.333C377.053 221.333 374.667 223.72 374.667 226.667C374.667 229.613 377.053 232 380 232ZM380 234.667C376.44 234.667 369.333 236.453 369.333 240V242.667H390.667V240C390.667 236.453 383.56 234.667 380 234.667Z" fill="#6A002C"/>
</g>
<g clip-path="url(#clip34_305_1837)">
<path d="M380 304C382.947 304 385.333 301.613 385.333 298.667C385.333 295.72 382.947 293.333 380 293.333C377.053 293.333 374.667 295.72 374.667 298.667C374.667 301.613 377.053 304 380 304ZM380 306.667C376.44 306.667 369.333 308.453 369.333 312V314.667H390.667V312C390.667 308.453 383.56 306.667 380 306.667Z" fill="#6A002C"/>
</g>
<g clip-path="url(#clip35_305_1837)">
<path d="M380 376C382.947 376 385.333 373.613 385.333 370.667C385.333 367.72 382.947 365.333 380 365.333C377.053 365.333 374.667 367.72 374.667 370.667C374.667 373.613 377.053 376 380 376ZM380 378.667C376.44 378.667 369.333 380.453 369.333 384V386.667H390.667V384C390.667 380.453 383.56 378.667 380 378.667Z" fill="#6A002C"/>
</g>
<g clip-path="url(#clip36_305_1837)">
<path d="M224 16C226.947 16 229.333 13.6134 229.333 10.6667C229.333 7.72004 226.947 5.33337 224 5.33337C221.053 5.33337 218.667 7.72004 218.667 10.6667C218.667 13.6134 221.053 16 224 16ZM224 18.6667C220.44 18.6667 213.333 20.4534 213.333 24V26.6667H234.667V24C234.667 20.4534 227.56 18.6667 224 18.6667Z" fill="#6A002C"/>
</g>
<g clip-path="url(#clip37_305_1837)">
<path d="M224 88C226.947 88 229.333 85.6134 229.333 82.6667C229.333 79.72 226.947 77.3334 224 77.3334C221.053 77.3334 218.667 79.72 218.667 82.6667C218.667 85.6134 221.053 88 224 88ZM224 90.6667C220.44 90.6667 213.333 92.4534 213.333 96V98.6667H234.667V96C234.667 92.4534 227.56 90.6667 224 90.6667Z" fill="#6A002C"/>
</g>
<g clip-path="url(#clip38_305_1837)">
<path d="M224 160C226.947 160 229.333 157.613 229.333 154.667C229.333 151.72 226.947 149.333 224 149.333C221.053 149.333 218.667 151.72 218.667 154.667C218.667 157.613 221.053 160 224 160ZM224 162.667C220.44 162.667 213.333 164.453 213.333 168V170.667H234.667V168C234.667 164.453 227.56 162.667 224 162.667Z" fill="#6A002C"/>
</g>
<g clip-path="url(#clip39_305_1837)">
<path d="M224 232C226.947 232 229.333 229.613 229.333 226.667C229.333 223.72 226.947 221.333 224 221.333C221.053 221.333 218.667 223.72 218.667 226.667C218.667 229.613 221.053 232 224 232ZM224 234.667C220.44 234.667 213.333 236.453 213.333 240V242.667H234.667V240C234.667 236.453 227.56 234.667 224 234.667Z" fill="#6A002C"/>
</g>
<g clip-path="url(#clip40_305_1837)">
<path d="M224 304C226.947 304 229.333 301.613 229.333 298.667C229.333 295.72 226.947 293.333 224 293.333C221.053 293.333 218.667 295.72 218.667 298.667C218.667 301.613 221.053 304 224 304ZM224 306.667C220.44 306.667 213.333 308.453 213.333 312V314.667H234.667V312C234.667 308.453 227.56 306.667 224 306.667Z" fill="#6A002C"/>
</g>
<g clip-path="url(#clip41_305_1837)">
<path d="M224 376C226.947 376 229.333 373.613 229.333 370.667C229.333 367.72 226.947 365.333 224 365.333C221.053 365.333 218.667 367.72 218.667 370.667C218.667 373.613 221.053 376 224 376ZM224 378.667C220.44 378.667 213.333 380.453 213.333 384V386.667H234.667V384C234.667 380.453 227.56 378.667 224 378.667Z" fill="#6A002C"/>
</g>
<g clip-path="url(#clip42_305_1837)">
<path d="M120 16C122.947 16 125.333 13.6134 125.333 10.6667C125.333 7.72004 122.947 5.33337 120 5.33337C117.053 5.33337 114.667 7.72004 114.667 10.6667C114.667 13.6134 117.053 16 120 16ZM120 18.6667C116.44 18.6667 109.333 20.4534 109.333 24V26.6667H130.667V24C130.667 20.4534 123.56 18.6667 120 18.6667Z" fill="#6A002C"/>
</g>
<g clip-path="url(#clip43_305_1837)">
<path d="M120 88C122.947 88 125.333 85.6134 125.333 82.6667C125.333 79.72 122.947 77.3334 120 77.3334C117.053 77.3334 114.667 79.72 114.667 82.6667C114.667 85.6134 117.053 88 120 88ZM120 90.6667C116.44 90.6667 109.333 92.4534 109.333 96V98.6667H130.667V96C130.667 92.4534 123.56 90.6667 120 90.6667Z" fill="#6A002C"/>
</g>
<g clip-path="url(#clip44_305_1837)">
<path d="M120 160C122.947 160 125.333 157.613 125.333 154.667C125.333 151.72 122.947 149.333 120 149.333C117.053 149.333 114.667 151.72 114.667 154.667C114.667 157.613 117.053 160 120 160ZM120 162.667C116.44 162.667 109.333 164.453 109.333 168V170.667H130.667V168C130.667 164.453 123.56 162.667 120 162.667Z" fill="#6A002C"/>
</g>
<g clip-path="url(#clip45_305_1837)">
<path d="M120 232C122.947 232 125.333 229.613 125.333 226.667C125.333 223.72 122.947 221.333 120 221.333C117.053 221.333 114.667 223.72 114.667 226.667C114.667 229.613 117.053 232 120 232ZM120 234.667C116.44 234.667 109.333 236.453 109.333 240V242.667H130.667V240C130.667 236.453 123.56 234.667 120 234.667Z" fill="#6A002C"/>
</g>
<g clip-path="url(#clip46_305_1837)">
<path d="M120 304C122.947 304 125.333 301.613 125.333 298.667C125.333 295.72 122.947 293.333 120 293.333C117.053 293.333 114.667 295.72 114.667 298.667C114.667 301.613 117.053 304 120 304ZM120 306.667C116.44 306.667 109.333 308.453 109.333 312V314.667H130.667V312C130.667 308.453 123.56 306.667 120 306.667Z" fill="#6A002C"/>
</g>
<g clip-path="url(#clip47_305_1837)">
<path d="M120 376C122.947 376 125.333 373.613 125.333 370.667C125.333 367.72 122.947 365.333 120 365.333C117.053 365.333 114.667 367.72 114.667 370.667C114.667 373.613 117.053 376 120 376ZM120 378.667C116.44 378.667 109.333 380.453 109.333 384V386.667H130.667V384C130.667 380.453 123.56 378.667 120 378.667Z" fill="#6A002C"/>
</g>
<g clip-path="url(#clip48_305_1837)">
<path d="M432 16C434.947 16 437.333 13.6134 437.333 10.6667C437.333 7.72004 434.947 5.33337 432 5.33337C429.053 5.33337 426.667 7.72004 426.667 10.6667C426.667 13.6134 429.053 16 432 16ZM432 18.6667C428.44 18.6667 421.333 20.4534 421.333 24V26.6667H442.667V24C442.667 20.4534 435.56 18.6667 432 18.6667Z" fill="#6A002C"/>
</g>
<g clip-path="url(#clip49_305_1837)">
<path d="M432 88C434.947 88 437.333 85.6134 437.333 82.6667C437.333 79.72 434.947 77.3334 432 77.3334C429.053 77.3334 426.667 79.72 426.667 82.6667C426.667 85.6134 429.053 88 432 88ZM432 90.6667C428.44 90.6667 421.333 92.4534 421.333 96V98.6667H442.667V96C442.667 92.4534 435.56 90.6667 432 90.6667Z" fill="#6A002C"/>
</g>
<g clip-path="url(#clip50_305_1837)">
<path d="M432 160C434.947 160 437.333 157.613 437.333 154.667C437.333 151.72 434.947 149.333 432 149.333C429.053 149.333 426.667 151.72 426.667 154.667C426.667 157.613 429.053 160 432 160ZM432 162.667C428.44 162.667 421.333 164.453 421.333 168V170.667H442.667V168C442.667 164.453 435.56 162.667 432 162.667Z" fill="#6A002C"/>
</g>
<g clip-path="url(#clip51_305_1837)">
<path d="M432 232C434.947 232 437.333 229.613 437.333 226.667C437.333 223.72 434.947 221.333 432 221.333C429.053 221.333 426.667 223.72 426.667 226.667C426.667 229.613 429.053 232 432 232ZM432 234.667C428.44 234.667 421.333 236.453 421.333 240V242.667H442.667V240C442.667 236.453 435.56 234.667 432 234.667Z" fill="#6A002C"/>
</g>
<g clip-path="url(#clip52_305_1837)">
<path d="M432 304C434.947 304 437.333 301.613 437.333 298.667C437.333 295.72 434.947 293.333 432 293.333C429.053 293.333 426.667 295.72 426.667 298.667C426.667 301.613 429.053 304 432 304ZM432 306.667C428.44 306.667 421.333 308.453 421.333 312V314.667H442.667V312C442.667 308.453 435.56 306.667 432 306.667Z" fill="#DDDDDD"/>
</g>
<g clip-path="url(#clip53_305_1837)">
<path d="M432 376C434.947 376 437.333 373.613 437.333 370.667C437.333 367.72 434.947 365.333 432 365.333C429.053 365.333 426.667 367.72 426.667 370.667C426.667 373.613 429.053 376 432 376ZM432 378.667C428.44 378.667 421.333 380.453 421.333 384V386.667H442.667V384C442.667 380.453 435.56 378.667 432 378.667Z" fill="#6A002C"/>
</g>
<g clip-path="url(#clip54_305_1837)">
<path d="M276 16C278.947 16 281.333 13.6134 281.333 10.6667C281.333 7.72004 278.947 5.33337 276 5.33337C273.053 5.33337 270.667 7.72004 270.667 10.6667C270.667 13.6134 273.053 16 276 16ZM276 18.6667C272.44 18.6667 265.333 20.4534 265.333 24V26.6667H286.667V24C286.667 20.4534 279.56 18.6667 276 18.6667Z" fill="#6A002C"/>
</g>
<g clip-path="url(#clip55_305_1837)">
<path d="M276 88C278.947 88 281.333 85.6134 281.333 82.6667C281.333 79.72 278.947 77.3334 276 77.3334C273.053 77.3334 270.667 79.72 270.667 82.6667C270.667 85.6134 273.053 88 276 88ZM276 90.6667C272.44 90.6667 265.333 92.4534 265.333 96V98.6667H286.667V96C286.667 92.4534 279.56 90.6667 276 90.6667Z" fill="#6A002C"/>
</g>
<g clip-path="url(#clip56_305_1837)">
<path d="M276 160C278.947 160 281.333 157.613 281.333 154.667C281.333 151.72 278.947 149.333 276 149.333C273.053 149.333 270.667 151.72 270.667 154.667C270.667 157.613 273.053 160 276 160ZM276 162.667C272.44 162.667 265.333 164.453 265.333 168V170.667H286.667V168C286.667 164.453 279.56 162.667 276 162.667Z" fill="#6A002C"/>
</g>
<g clip-path="url(#clip57_305_1837)">
<path d="M276 232C278.947 232 281.333 229.613 281.333 226.667C281.333 223.72 278.947 221.333 276 221.333C273.053 221.333 270.667 223.72 270.667 226.667C270.667 229.613 273.053 232 276 232ZM276 234.667C272.44 234.667 265.333 236.453 265.333 240V242.667H286.667V240C286.667 236.453 279.56 234.667 276 234.667Z" fill="#DDDDDD"/>
</g>
<g clip-path="url(#clip58_305_1837)">
<path d="M276 304C278.947 304 281.333 301.613 281.333 298.667C281.333 295.72 278.947 293.333 276 293.333C273.053 293.333 270.667 295.72 270.667 298.667C270.667 301.613 273.053 304 276 304ZM276 306.667C272.44 306.667 265.333 308.453 265.333 312V314.667H286.667V312C286.667 308.453 279.56 306.667 276 306.667Z" fill="#6A002C"/>
</g>
<g clip-path="url(#clip59_305_1837)">
<path d="M276 376C278.947 376 281.333 373.613 281.333 370.667C281.333 367.72 278.947 365.333 276 365.333C273.053 365.333 270.667 367.72 270.667 370.667C270.667 373.613 273.053 376 276 376ZM276 378.667C272.44 378.667 265.333 380.453 265.333 384V386.667H286.667V384C286.667 380.453 279.56 378.667 276 378.667Z" fill="#6A002C"/>
</g>
<defs>
<clipPath id="clip0_305_1837">
<rect width="32" height="32" fill="white"/>
</clipPath>
<clipPath id="clip1_305_1837">
<rect width="32" height="32" fill="white" transform="translate(0 72)"/>
</clipPath>
<clipPath id="clip2_305_1837">
<rect width="32" height="32" fill="white" transform="translate(0 144)"/>
</clipPath>
<clipPath id="clip3_305_1837">
<rect width="32" height="32" fill="white" transform="translate(0 216)"/>
</clipPath>
<clipPath id="clip4_305_1837">
<rect width="32" height="32" fill="white" transform="translate(0 288)"/>
</clipPath>
<clipPath id="clip5_305_1837">
<rect width="32" height="32" fill="white" transform="translate(0 360)"/>
</clipPath>
<clipPath id="clip6_305_1837">
<rect width="32" height="32" fill="white" transform="translate(312)"/>
</clipPath>
<clipPath id="clip7_305_1837">
<rect width="32" height="32" fill="white" transform="translate(312 72)"/>
</clipPath>
<clipPath id="clip8_305_1837">
<rect width="32" height="32" fill="white" transform="translate(312 144)"/>
</clipPath>
<clipPath id="clip9_305_1837">
<rect width="32" height="32" fill="white" transform="translate(312 216)"/>
</clipPath>
<clipPath id="clip10_305_1837">
<rect width="32" height="32" fill="white" transform="translate(312 288)"/>
</clipPath>
<clipPath id="clip11_305_1837">
<rect width="32" height="32" fill="white" transform="translate(312 360)"/>
</clipPath>
<clipPath id="clip12_305_1837">
<rect width="32" height="32" fill="white" transform="translate(156)"/>
</clipPath>
<clipPath id="clip13_305_1837">
<rect width="32" height="32" fill="white" transform="translate(156 72)"/>
</clipPath>
<clipPath id="clip14_305_1837">
<rect width="32" height="32" fill="white" transform="translate(156 144)"/>
</clipPath>
<clipPath id="clip15_305_1837">
<rect width="32" height="32" fill="white" transform="translate(156 216)"/>
</clipPath>
<clipPath id="clip16_305_1837">
<rect width="32" height="32" fill="white" transform="translate(156 288)"/>
</clipPath>
<clipPath id="clip17_305_1837">
<rect width="32" height="32" fill="white" transform="translate(156 360)"/>
</clipPath>
<clipPath id="clip18_305_1837">
<rect width="32" height="32" fill="white" transform="translate(468)"/>
</clipPath>
<clipPath id="clip19_305_1837">
<rect width="32" height="32" fill="white" transform="translate(468 72)"/>
</clipPath>
<clipPath id="clip20_305_1837">
<rect width="32" height="32" fill="white" transform="translate(468 144)"/>
</clipPath>
<clipPath id="clip21_305_1837">
<rect width="32" height="32" fill="white" transform="translate(468 216)"/>
</clipPath>
<clipPath id="clip22_305_1837">
<rect width="32" height="32" fill="white" transform="translate(468 288)"/>
</clipPath>
<clipPath id="clip23_305_1837">
<rect width="32" height="32" fill="white" transform="translate(468 360)"/>
</clipPath>
<clipPath id="clip24_305_1837">
<rect width="32" height="32" fill="white" transform="translate(52)"/>
</clipPath>
<clipPath id="clip25_305_1837">
<rect width="32" height="32" fill="white" transform="translate(52 72)"/>
</clipPath>
<clipPath id="clip26_305_1837">
<rect width="32" height="32" fill="white" transform="translate(52 144)"/>
</clipPath>
<clipPath id="clip27_305_1837">
<rect width="32" height="32" fill="white" transform="translate(52 216)"/>
</clipPath>
<clipPath id="clip28_305_1837">
<rect width="32" height="32" fill="white" transform="translate(52 288)"/>
</clipPath>
<clipPath id="clip29_305_1837">
<rect width="32" height="32" fill="white" transform="translate(52 360)"/>
</clipPath>
<clipPath id="clip30_305_1837">
<rect width="32" height="32" fill="white" transform="translate(364)"/>
</clipPath>
<clipPath id="clip31_305_1837">
<rect width="32" height="32" fill="white" transform="translate(364 72)"/>
</clipPath>
<clipPath id="clip32_305_1837">
<rect width="32" height="32" fill="white" transform="translate(364 144)"/>
</clipPath>
<clipPath id="clip33_305_1837">
<rect width="32" height="32" fill="white" transform="translate(364 216)"/>
</clipPath>
<clipPath id="clip34_305_1837">
<rect width="32" height="32" fill="white" transform="translate(364 288)"/>
</clipPath>
<clipPath id="clip35_305_1837">
<rect width="32" height="32" fill="white" transform="translate(364 360)"/>
</clipPath>
<clipPath id="clip36_305_1837">
<rect width="32" height="32" fill="white" transform="translate(208)"/>
</clipPath>
<clipPath id="clip37_305_1837">
<rect width="32" height="32" fill="white" transform="translate(208 72)"/>
</clipPath>
<clipPath id="clip38_305_1837">
<rect width="32" height="32" fill="white" transform="translate(208 144)"/>
</clipPath>
<clipPath id="clip39_305_1837">
<rect width="32" height="32" fill="white" transform="translate(208 216)"/>
</clipPath>
<clipPath id="clip40_305_1837">
<rect width="32" height="32" fill="white" transform="translate(208 288)"/>
</clipPath>
<clipPath id="clip41_305_1837">
<rect width="32" height="32" fill="white" transform="translate(208 360)"/>
</clipPath>
<clipPath id="clip42_305_1837">
<rect width="32" height="32" fill="white" transform="translate(104)"/>
</clipPath>
<clipPath id="clip43_305_1837">
<rect width="32" height="32" fill="white" transform="translate(104 72)"/>
</clipPath>
<clipPath id="clip44_305_1837">
<rect width="32" height="32" fill="white" transform="translate(104 144)"/>
</clipPath>
<clipPath id="clip45_305_1837">
<rect width="32" height="32" fill="white" transform="translate(104 216)"/>
</clipPath>
<clipPath id="clip46_305_1837">
<rect width="32" height="32" fill="white" transform="translate(104 288)"/>
</clipPath>
<clipPath id="clip47_305_1837">
<rect width="32" height="32" fill="white" transform="translate(104 360)"/>
</clipPath>
<clipPath id="clip48_305_1837">
<rect width="32" height="32" fill="white" transform="translate(416)"/>
</clipPath>
<clipPath id="clip49_305_1837">
<rect width="32" height="32" fill="white" transform="translate(416 72)"/>
</clipPath>
<clipPath id="clip50_305_1837">
<rect width="32" height="32" fill="white" transform="translate(416 144)"/>
</clipPath>
<clipPath id="clip51_305_1837">
<rect width="32" height="32" fill="white" transform="translate(416 216)"/>
</clipPath>
<clipPath id="clip52_305_1837">
<rect width="32" height="32" fill="white" transform="translate(416 288)"/>
</clipPath>
<clipPath id="clip53_305_1837">
<rect width="32" height="32" fill="white" transform="translate(416 360)"/>
</clipPath>
<clipPath id="clip54_305_1837">
<rect width="32" height="32" fill="white" transform="translate(260)"/>
</clipPath>
<clipPath id="clip55_305_1837">
<rect width="32" height="32" fill="white" transform="translate(260 72)"/>
</clipPath>
<clipPath id="clip56_305_1837">
<rect width="32" height="32" fill="white" transform="translate(260 144)"/>
</clipPath>
<clipPath id="clip57_305_1837">
<rect width="32" height="32" fill="white" transform="translate(260 216)"/>
</clipPath>
<clipPath id="clip58_305_1837">
<rect width="32" height="32" fill="white" transform="translate(260 288)"/>
</clipPath>
<clipPath id="clip59_305_1837">
<rect width="32" height="32" fill="white" transform="translate(260 360)"/>
</clipPath>
</defs>
</svg>
